HIERARCHY
ROOT hip
{
  OFFSET 0 0 0
  CHANNELS 6 Xposition Yposition Zposition Zrotation Yrotation Xrotation
  JOINT abdomen
  {
    OFFSET 0 20.6881 -0.73152
    CHANNELS 3 Zrotation Xrotation Yrotation
    JOINT chest
    {
      OFFSET 0 11.7043 -0.48768
      CHANNELS 3 Zrotation Xrotation Yrotation
      JOINT neck
      {
        OFFSET 0 22.1894 -2.19456
        CHANNELS 3 Zrotation Xrotation Yrotation
        JOINT head
        {
          OFFSET -0.24384 7.07133 1.2192
          CHANNELS 3 Zrotation Xrotation Yrotation
          JOINT leftEye
          {
            OFFSET 4.14528 8.04674 8.04672
            CHANNELS 3 Zrotation Xrotation Yrotation
            End Site
            {
              OFFSET 1 0 0
            }
          }
          JOINT rightEye
          {
            OFFSET -3.6576 8.04674 8.04672
            CHANNELS 3 Zrotation Xrotation Yrotation
            End Site
            {
              OFFSET 1 0 0
            }
          }
        }
      }
      JOINT rCollar
      {
        OFFSET -2.68224 19.2634 -4.8768
        CHANNELS 3 Zrotation Xrotation Yrotation
        JOINT rShldr
        {
          OFFSET -8.77824 -1.95073 1.46304
          CHANNELS 3 Zrotation Xrotation Yrotation
          JOINT rForeArm
          {
            OFFSET -28.1742 -1.7115 0.48768
            CHANNELS 3 Zrotation Xrotation Yrotation
            JOINT rHand
            {
              OFFSET -22.5879 0.773209 7.07136
              CHANNELS 3 Zrotation Xrotation Yrotation
              JOINT rThumb1
              {
                OFFSET -1.2192 -0.487915 3.41376
                CHANNELS 3 Zrotation Xrotation Yrotation
                JOINT rThumb2
                {
                  OFFSET -3.37035 -0.52449 3.41376
                  CHANNELS 3 Zrotation Xrotation Yrotation
                  End Site
                  {
                    OFFSET -1.78271 -1.18214 1.43049
                  }
                }
              }
              JOINT rIndex1
              {
                OFFSET -7.75947 0.938293 5.60832
                CHANNELS 3 Zrotation Xrotation Yrotation
                JOINT rIndex2
                {
                  OFFSET -2.54057 -0.884171 1.56538
                  CHANNELS 3 Zrotation Xrotation Yrotation
                  End Site
                  {
                    OFFSET -1.62519 -0.234802 1.16502
                  }
                }
              }
              JOINT rMid1
              {
                OFFSET -8.24714 1.18213 3.41376
                CHANNELS 3 Zrotation Xrotation Yrotation
                JOINT rMid2
                {
                  OFFSET -3.10165 -0.590103 1.0647
                  CHANNELS 3 Zrotation Xrotation Yrotation
                  End Site
                  {
                    OFFSET -2.48547 -0.328903 0.83742
                  }
                }
              }
              JOINT rRing1
              {
                OFFSET -8.82822 0.546677 1.51678
                CHANNELS 3 Zrotation Xrotation Yrotation
                JOINT rRing2
                {
                  OFFSET -2.60934 -0.819778 -0.0198488
                  CHANNELS 3 Zrotation Xrotation Yrotation
                  End Site
                  {
                    OFFSET -2.33842 -0.294052 0.168128
                  }
                }
              }
              JOINT rPinky1
              {
                OFFSET -8.27202 -0.0477905 -0.4584
                CHANNELS 3 Zrotation Xrotation Yrotation
                JOINT rPinky2
                {
                  OFFSET -1.82734 -0.647385 -0.700984
                  CHANNELS 3 Zrotation Xrotation Yrotation
                  End Site
                  {
                    OFFSET -1.69225 -0.51767 -0.607171
                  }
                }
              }
            }
          }
        }
      }
      JOINT lCollar
      {
        OFFSET 2.68224 19.2634 -4.8768
        CHANNELS 3 Zrotation Xrotation Yrotation
        JOINT lShldr
        {
          OFFSET 8.77824 -1.95073 1.46304
          CHANNELS 3 Zrotation Xrotation Yrotation
          JOINT lForeArm
          {
            OFFSET 28.1742 -1.7115 0.48768
            CHANNELS 3 Zrotation Xrotation Yrotation
            JOINT lHand
            {
              OFFSET 22.5879 0.773209 7.07136
              CHANNELS 3 Zrotation Xrotation Yrotation
              JOINT lThumb1
              {
                OFFSET 1.2192 -0.487915 3.41376
                CHANNELS 3 Zrotation Xrotation Yrotation
                JOINT lThumb2
                {
                  OFFSET 3.37035 -0.52449 3.41376
                  CHANNELS 3 Zrotation Xrotation Yrotation
                  End Site
                  {
                    OFFSET 1.78271 -1.18214 1.43049
                  }
                }
              }
              JOINT lIndex1
              {
                OFFSET 7.75947 0.938293 5.60832
                CHANNELS 3 Zrotation Xrotation Yrotation
                JOINT lIndex2
                {
                  OFFSET 2.54057 -0.884171 1.56538
                  CHANNELS 3 Zrotation Xrotation Yrotation
                  End Site
                  {
                    OFFSET 1.62519 -0.234802 1.16502
                  }
                }
              }
              JOINT lMid1
              {
                OFFSET 8.24714 1.18213 3.41376
                CHANNELS 3 Zrotation Xrotation Yrotation
                JOINT lMid2
                {
                  OFFSET 3.10165 -0.590103 1.0647
                  CHANNELS 3 Zrotation Xrotation Yrotation
                  End Site
                  {
                    OFFSET 2.48547 -0.328903 0.83742
                  }
                }
              }
              JOINT lRing1
              {
                OFFSET 8.82822 0.546677 1.51678
                CHANNELS 3 Zrotation Xrotation Yrotation
                JOINT lRing2
                {
                  OFFSET 2.60934 -0.819778 -0.0198488
                  CHANNELS 3 Zrotation Xrotation Yrotation
                  End Site
                  {
                    OFFSET 2.33842 -0.294052 0.168128
                  }
                }
              }
              JOINT lPinky1
              {
                OFFSET 8.27202 -0.0477905 -0.4584
                CHANNELS 3 Zrotation Xrotation Yrotation
                JOINT lPinky2
                {
                  OFFSET 1.82734 -0.647385 -0.700984
                  CHANNELS 3 Zrotation Xrotation Yrotation
                  End Site
                  {
                    OFFSET 1.69225 -0.51767 -0.607171
                  }
                }
              }
            }
          }
        }
      }
    }
  }
  JOINT rButtock
  {
    OFFSET -8.77824 4.35084 1.2192
    CHANNELS 3 Zrotation Xrotation Yrotation
    JOINT rThigh
    {
      OFFSET 0 -1.70687 -2.19456
      CHANNELS 3 Zrotation Xrotation Yrotation
      JOINT rShin
      {
        OFFSET 0 -36.8199 0.73152
        CHANNELS 3 Zrotation Xrotation Yrotation
        JOINT rFoot
        {
          OFFSET 0.73152 -45.1104 -5.12064
          CHANNELS 3 Zrotation Xrotation Yrotation
          End Site
          {
            OFFSET -1.1221 -3.69964 12.103
          }
        }
      }
    }
  }
  JOINT lButtock
  {
    OFFSET 8.77824 4.35084 1.2192
    CHANNELS 3 Zrotation Xrotation Yrotation
    JOINT lThigh
    {
      OFFSET 0 -1.70687 -2.19456
      CHANNELS 3 Zrotation Xrotation Yrotation
      JOINT lShin
      {
        OFFSET 0 -36.8199 0.73152
        CHANNELS 3 Zrotation Xrotation Yrotation
        JOINT lFoot
        {
          OFFSET -0.73152 -45.1104 -5.12064
          CHANNELS 3 Zrotation Xrotation Yrotation
          End Site
          {
            OFFSET 1.1221 -3.69964 12.103
          }
        }
      }
    }
  }
}
MOTION
Frames:	4
Frame Time:	0.00833333
-6.24971 78.566 17.8391 544.082 -126.043 -545.99 -0.98374 6.83775 1.26016 6.16521 -4.10598 0.322163 -18.2558 -2.62905 -7.39963 18.0333 -43.4934 -3.10749 -0.0 0.0 0.0 -0.0 0.0 0.0 -3.80872e-14 6.90198e-13 -1.7587e-12 65.2859 40.3155 12.3091 -24.8032 -20.68 52.261 -0.0215267 -4.1848 -0.589194 3.78315e-09 -3.50672e-10 3.47512e-09 6.52884e-09 -5.75572e-10 6.02437e-09 3.78315e-09 -3.50662e-10 3.47511e-09 7.73091 5.47488 0.417314 3.78315e-09 -3.50662e-10 3.47512e-09 2.90554 0.965183 0.102902 3.78316e-09 -3.50663e-10 3.47512e-09 10.2786 0.731801 0.0259123 3.78315e-09 -3.50661e-10 3.47513e-09 2.22167 -0.733487 -0.20892 -3.82484e-14 6.90162e-13 -1.7589e-12 19.1866 -36.8092 -39.3928 27.2474 -27.2022 -62.7954 0.00660971 -2.32068 0.326331 3.72777e-09 -2.52594e-09 -5.72791e-09 6.46278e-09 -4.35317e-09 -9.89877e-09 3.72777e-09 -2.52593e-09 -5.7279e-09 -7.73091 5.47488 -0.417314 3.72777e-09 -2.52593e-09 -5.7279e-09 -2.90554 0.965183 -0.102902 3.72776e-09 -2.52593e-09 -5.72791e-09 -10.2786 0.731801 -0.0259123 3.72778e-09 -2.52593e-09 -5.72791e-09 -2.22167 -0.733487 0.20892 -2.03217e-16 0.0 -3.88251e-19 -23.3497 -21.5469 -12.1105 -0.851721 55.7048 1.20463 1.87401 -1.94266 13.3337 2.03217e-16 0.0 3.88251e-19 -1.19598 -14.9387 -3.66788 0.438539 46.7477 -1.00698 0.146362 -21.1706 0.154712
-6.1706 78.8113 18.0234 544.342 -126.314 -546.287 -0.872307 6.58272 0.839065 6.2207 -3.94625 0.194628 -18.3461 -2.59037 -7.23054 18.1272 -43.5039 -2.70068 -0.0 0.0 0.0 -0.0 0.0 0.0 -3.42342e-14 4.4179e-13 -1.24845e-12 66.4628 38.4816 9.80019 -24.7344 -20.537 52.0261 -0.0290672 -4.8367 -0.681383 2.66468e-09 -2.85831e-10 2.75675e-09 4.59689e-09 -4.69299e-10 4.77905e-09 2.66468e-09 -2.85823e-10 2.75673e-09 7.73091 5.47488 0.417314 2.66467e-09 -2.85823e-10 2.75675e-09 2.90554 0.965183 0.102902 2.66468e-09 -2.85825e-10 2.75675e-09 10.2786 0.731801 0.0259123 2.66467e-09 -2.85824e-10 2.75676e-09 2.22167 -0.733487 -0.20892 -3.43948e-14 4.41757e-13 -1.24866e-12 18.9082 -33.7828 -38.9554 27.4572 -28.0013 -64.0857 0.00577955 -2.16894 0.304967 2.87158e-09 -1.98393e-09 -4.35902e-09 4.97826e-09 -3.41949e-09 -7.53327e-09 2.87158e-09 -1.98393e-09 -4.35901e-09 -7.73091 5.47488 -0.417314 2.87159e-09 -1.98393e-09 -4.35901e-09 -2.90554 0.965183 -0.102902 2.87158e-09 -1.98393e-09 -4.35902e-09 -10.2786 0.731801 -0.0259123 2.87159e-09 -1.98393e-09 -4.35903e-09 -2.22167 -0.733487 0.20892 -2.03217e-16 0.0 -3.88251e-19 -23.1943 -21.6086 -11.534 -0.843788 55.5517 1.19985 1.68283 -1.81583 12.4487 2.03217e-16 0.0 3.88251e-19 -1.3875 -14.7866 -3.63164 0.42644 46.3016 -0.985722 -0.0227793 -20.6019 -0.241196
-6.09209 79.0335 18.1969 544.619 -126.56 -546.589 -0.747945 6.37056 0.455222 6.29275 -3.84799 0.0810402 -18.549 -2.33144 -7.06389 18.5035 -43.8041 -2.17652 -0.0 0.0 0.0 -0.0 0.0 0.0 -2.60024e-14 3.36068e-14 -3.88636e-13 67.2674 36.5472 7.55588 -24.6719 -20.4088 51.8125 -0.0363778 -5.43756 -0.766489 5.74548e-10 2.10027e-10 1.51908e-09 9.8685e-10 3.77637e-10 2.63318e-09 5.7455e-10 2.1003e-10 1.51907e-09 7.73091 5.47488 0.417314 5.74542e-10 2.10031e-10 1.51908e-09 2.90554 0.965183 0.102902 5.74556e-10 2.10028e-10 1.51909e-09 10.2786 0.731801 0.0259123 5.74545e-10 2.10027e-10 1.5191e-09 2.22167 -0.733487 -0.20892 -2.6146e-14 3.35822e-14 -3.88882e-13 18.4717 -30.7006 -38.6492 27.6443 -28.7832 -65.3 0.00460102 -1.89615 0.266579 1.32044e-09 -1.00476e-09 -1.89708e-09 2.28844e-09 -1.73284e-09 -3.27879e-09 1.32044e-09 -1.00476e-09 -1.89707e-09 -7.73091 5.47488 -0.417314 1.32045e-09 -1.00476e-09 -1.89708e-09 -2.90554 0.965183 -0.102902 1.32044e-09 -1.00475e-09 -1.89708e-09 -10.2786 0.731801 -0.0259123 1.32045e-09 -1.00475e-09 -1.89709e-09 -2.22167 -0.733487 0.20892 -2.03217e-16 0.0 -3.88251e-19 -22.9962 -21.7988 -10.8111 -0.842124 55.5317 1.20254 1.47754 -1.6351 11.4953 2.03217e-16 0.0 3.88251e-19 -1.58586 -14.6568 -3.63763 0.415207 45.8985 -0.967608 -0.177166 -20.0223 -0.618513
-6.03092 79.2539 18.3249 544.865 -126.423 -546.693 -0.626289 6.20138 0.11268 6.34918 -3.77188 -0.0205909 -18.7457 -2.03433 -6.88724 18.9352 -44.1444 -1.61441 -0.0 0.0 0.0 -0.0 0.0 0.0 -2.0433e-14 -3.53804e-13 4.3817e-13 67.7091 34.6235 5.59603 -24.6267 -20.3168 51.6582 -0.043165 -5.9381 -0.837534 -1.41294e-09 7.53033e-10 2.72603e-10 -2.44552e-09 1.30583e-09 4.71941e-10 -1.41293e-09 7.53032e-10 2.72587e-10 7.73091 5.47488 0.417314 -1.41294e-09 7.53033e-10 2.72602e-10 2.90554 0.965183 0.102902 -1.41293e-09 7.53028e-10 2.72605e-10 10.2786 0.731801 0.0259123 -1.41294e-09 7.53027e-10 2.72617e-10 2.22167 -0.733487 -0.20892 -2.05571e-14 -3.53819e-13 4.37893e-13 17.9177 -27.6111 -38.4425 27.7973 -29.4989 -66.4181 0.00317117 -1.53342 0.215557 -2.42998e-10 7.33369e-12 5.7009e-10 -4.2266e-10 1.05734e-11 9.84507e-10 -2.42998e-10 7.33769e-12 5.70097e-10 -7.73091 5.47488 -0.417314 -2.42993e-10 7.33458e-12 5.70084e-10 -2.90554 0.965183 -0.102902 -2.42996e-10 7.33963e-12 5.7009e-10 -10.2786 0.731801 -0.0259123 -2.4299e-10 7.34102e-12 5.70084e-10 -2.22167 -0.733487 0.20892 -2.03217e-16 0.0 -3.88251e-19 -22.8042 -22.1005 -10.0191 -0.845592 55.621 1.21104 1.25587 -1.35165 10.508 2.03217e-16 0.0 3.88251e-19 -1.80941 -14.4943 -3.67514 0.403112 45.479 -0.951553 -0.302976 -19.4711 -0.942348
